<svg width="11" height="14" viewBox="0 0 11 14" fill="none" xmlns="http://www.w3.org/2000/svg">
  <path d="M3.17195 2.2H2.08597C1.79795 2.2 1.52173 2.32643 1.31807 2.55147C1.11441 2.77652 1 3.08174 1 3.4V11.8C1 12.1183 1.11441 12.4235 1.31807 12.6485C1.52173 12.8736 1.79795 13 2.08597 13H8.60181C8.88983 13 9.16605 12.8736 9.36971 12.6485C9.57337 12.4235 9.68778 12.1183 9.68778 11.8V10.6M7.51584 2.2H8.60181C8.88983 2.2 9.16605 2.32643 9.36971 2.55147C9.57337 2.77652 9.68778 3.08174 9.68778 3.4V5.8M10.2308 8.2H4.8009M4.8009 8.2L6.97285 5.8M4.8009 8.2L6.97285 10.6M3.71493 1H6.97285C7.27273 1 7.51584 1.26863 7.51584 1.6V2.8C7.51584 3.13137 7.27273 3.4 6.97285 3.4H3.71493C3.41505 3.4 3.17195 3.13137 3.17195 2.8V1.6C3.17195 1.26863 3.41505 1 3.71493 1Z" stroke-linecap="round" stroke-linejoin="round"/>
</svg>
