<svg width="14" height="14" viewBox="0 0 14 14" fill="none" xmlns="http://www.w3.org/2000/svg">
<path d="M5.728 5.728C5.55115 5.89279 5.40931 6.09151 5.31093 6.31231C5.21255 6.53311 5.15964 6.77146 5.15538 7.01315C5.15112 7.25483 5.19557 7.4949 5.28611 7.71903C5.37664 7.94317 5.51138 8.14677 5.68231 8.31769C5.85323 8.48862 6.05683 8.62336 6.28097 8.71389C6.5051 8.80443 6.74517 8.84888 6.98685 8.84462C7.22854 8.84036 7.46689 8.78746 7.68769 8.68907C7.90849 8.59069 8.10721 8.44885 8.272 8.272M6.238 2.848C6.49079 2.81651 6.74526 2.80048 7 2.8C11.2 2.8 13 7 13 7C12.7318 7.57427 12.3953 8.11416 11.998 8.608M3.766 3.766C2.57275 4.57877 1.61792 5.69516 1 7C1 7 2.8 11.2 7 11.2C8.14955 11.2031 9.27447 10.8671 10.234 10.234M1 1L13 13" stroke-linecap="round" stroke-linejoin="round"/>
</svg>
