<svg width="13" height="17" viewBox="0 0 13 17" fill="none" stroke="#FFF" xmlns="http://www.w3.org/2000/svg">
<path d="M11.5 7V8.5C11.5 9.89239 10.9469 11.2277 9.96231 12.2123C8.97774 13.1969 7.64239 13.75 6.25 13.75M6.25 13.75C4.85761 13.75 3.52226 13.1969 2.53769 12.2123C1.55312 11.2277 1 9.89239 1 8.5V7M6.25 13.75V16M6.25 1C5.65326 1 5.08097 1.23705 4.65901 1.65901C4.23705 2.08097 4 2.65326 4 3.25V8.5C4 9.09674 4.23705 9.66903 4.65901 10.091C5.08097 10.5129 5.65326 10.75 6.25 10.75C6.84674 10.75 7.41903 10.5129 7.84099 10.091C8.26295 9.66903 8.5 9.09674 8.5 8.5V3.25C8.5 2.65326 8.26295 2.08097 7.84099 1.65901C7.41903 1.23705 6.84674 1 6.25 1Z" stroke-width="1.5" stroke-linecap="round" stroke-linejoin="round"/>
</svg>
